<?xml version="1.0" encoding="utf-8"?>
<!-- Generator: Adobe Illustrator 22.1.0, SVG Export Plug-In . SVG Version: 6.00 Build 0)  -->
<svg version="1.1" id="Layer_1" xmlns="http://www.w3.org/2000/svg" xmlns:xlink="http://www.w3.org/1999/xlink" x="0px" y="0px"
	 viewBox="0 0 158.5 179.9" style="enable-background:new 0 0 158.5 179.9;" xml:space="preserve">
<style type="text/css">
	.st0{display:none;}
	.st1{display:inline;stroke:#000000;stroke-miterlimit:10;}
	.st2{display:inline;}
	.st3{fill:#FFFFFF;}
	.st4{opacity:0.6;fill:#FFFFFF;enable-background:new    ;}
	.st5{opacity:0.76;}
	.st6{opacity:0.45;fill:#FFFFFF;enable-background:new    ;}
	.st7{opacity:0.35;fill:#FFFFFF;enable-background:new    ;}
	.st8{opacity:0.25;fill:#FFFFFF;enable-background:new    ;}
	.st9{opacity:0.15;fill:#FFFFFF;enable-background:new    ;}
</style>
<g id="Layer_2_1_" class="st0">
	<rect x="-0.8" class="st1" width="159.3" height="179.9"/>
</g>
<g id="Layer_1_2_" class="st0">
	<g id="Layer_2_2_" class="st2">
		<rect width="158.5" height="179.9"/>
	</g>
	<g id="Layer_1_1_" class="st2">
		<g>
			<g>
				<path class="st3" d="M19.8,68.8c1.4,5,2.7,9.8,4.3,15.7c1.7-2.2,2.7-3.5,4-5.2c1.5,0.7,3.1,1.4,5.6,2.5
					c-1.5-5.4-2.8-10.2-4.2-15.5c4.7-1.3,8.7-2.4,13.4-3.7c1.7,6.1,3.9,12.2,4.8,18.6c0.3,2-2.5,5.8-4.5,6.4
					C30,91.7,16.7,95.2,3.4,98.7c-3.8,1-6.7-0.5-7.8-4.4c-1.7-5.7-3.2-11.4-4.8-17.5C0.5,74,9.9,71.5,19.8,68.8z"/>
				<path class="st3" d="M41.9,60C24.6,64.8,7.5,69.4-9.5,74.1c-2.9-6.7-1.9-9.2,4.6-11c12.4-3.5,24.8-6.9,37.2-10.2
					C38.5,51.3,40.4,52.8,41.9,60z"/>
				<path class="st3" d="M10.7,45.6c3.6-1,7.1-2.1,10.8-2.9c4.8-1.1,7.6,1.2,8.3,5.8c0.2,1.1-0.8,2.3-1.3,3.5
					c-1-0.5-2.7-0.8-2.9-1.6c-1.2-4-3.9-3.2-6.7-2.4c-4.3,1.2-8.6,2.3-12.9,3.5c-3.4,1-7.9,1-6.3,6.8c0.1,0.5-1.3,1.8-2.1,1.9
					c-0.7,0.1-2-0.7-2.4-1.5c-2.3-4.1-0.8-8.3,3.7-9.9C2.7,47.5,6.7,46.7,10.7,45.6z"/>
			</g>
			<rect x="57.9" y="-4.4" transform="matrix(0.9645 -0.2639 0.2639 0.9645 2.5622 32.2714)" class="st3" width="127" height="22"/>
			<rect x="65" y="26.6" transform="matrix(0.9645 -0.2639 0.2639 0.9645 -4.0469 35.0661)" class="st4" width="127" height="12"/>
			<g class="st5">
				<path class="st3" d="M46.2,17.9l22.2,81l-81,22.2l-22.2-81L46.2,17.9 M47.6,15.4l-84.9,23.2l23.2,84.9l84.9-23.2L47.6,15.4
					L47.6,15.4z"/>
			</g>
			
				<rect x="70.8" y="47.9" transform="matrix(0.9645 -0.2639 0.2639 0.9645 -9.4638 37.3523)" class="st4" width="127" height="12"/>
			
				<rect x="77.7" y="76.9" transform="matrix(0.9645 -0.2639 0.2639 0.9645 -17.9239 32.3637)" class="st4" width="67.6" height="12"/>
			
				<rect x="-14.1" y="103.3" transform="matrix(0.9645 -0.2639 0.2639 0.9645 -25.0924 29.8071)" class="st4" width="225" height="10"/>
			
				<rect x="-8.8" y="122.6" transform="matrix(0.9645 -0.2639 0.2639 0.9645 -29.9978 31.8904)" class="st4" width="225" height="10"/>
			
				<rect x="-3.5" y="141.9" transform="matrix(0.9645 -0.2639 0.2639 0.9645 -34.9031 33.9737)" class="st4" width="225" height="10"/>
			
				<rect x="1.7" y="161.1" transform="matrix(0.9645 -0.2639 0.2639 0.9645 -39.7846 36.0247)" class="st4" width="225" height="10"/>
		</g>
	</g>
</g>
<g id="Layer_3">
	<path class="st6" d="M66.4,28.4C23.3,45.2,1.9,93.7,18.6,136.8s65.2,64.5,108.4,47.8c43.1-16.7,64.5-65.2,47.8-108.4
		C158,33.1,109.5,11.7,66.4,28.4L66.4,28.4z M145.9,127.2c-0.5,2.8-3.2,4.7-6.1,4.2c-22.7-4.1-46.7,2.3-71.5,19.1
		c-2.4,1.6-5.6,1-7.2-1.4c-1.6-2.4-1-5.6,1.4-7.2c27.1-18.3,53.8-25.3,79.2-20.7C144.5,121.6,146.4,124.3,145.9,127.2z M147.2,102.2
		c-0.7,3.6-4,5.9-7.6,5.3c-26-4.8-59.4,3.9-81.3,21.1c-2.8,2.2-6.9,1.7-9.2-1.1c-2.2-2.8-1.7-6.9,1.1-9.2
		c25-19.6,61.9-29.1,91.7-23.6C145.5,95.3,147.8,98.7,147.2,102.2L147.2,102.2z M139.4,79.7c-31-5.2-73,9.5-94.2,26.2
		c-3.4,2.7-8.3,2.1-11-1.3s-2.1-8.3,1.3-11C59.9,74.5,106.3,58.3,142,64.3c4.3,0.7,7.2,4.8,6.4,9C147.7,77.6,143.7,80.5,139.4,79.7
		L139.4,79.7z"/>
	<path class="st7" d="M23,158c-5.6-7.4-16.1-8.9-23.5-3.3c-7.4,5.6-8.9,16.1-3.3,23.5s16.1,8.9,23.5,3.3
		C27.1,175.9,28.6,165.4,23,158L23,158z M8.4,178.7c-0.6,0.1-1.1-0.4-1.1-0.9c-0.4-4.6-3-8.9-7.6-12.7c-0.4-0.4-0.5-1-0.1-1.5
		c0.4-0.4,1-0.5,1.5-0.1c5,4.2,7.8,9,8.3,14.1C9.3,178.1,8.9,178.6,8.4,178.7z M13.2,177.6c-0.7,0.1-1.4-0.5-1.4-1.2
		c-0.5-5.3-4-11.2-8.5-14.5c-0.6-0.4-0.7-1.2-0.3-1.8s1.2-0.7,1.8-0.3c5.1,3.8,9,10.3,9.5,16.4C14.5,176.9,13.9,177.5,13.2,177.6
		L13.2,177.6z M17.1,174.9c-0.7-6.2-5.8-13.5-10.1-16.7c-0.7-0.5-0.9-1.5-0.3-2.2c0.5-0.7,1.5-0.9,2.2-0.3
		c5,3.6,10.6,11.7,11.4,18.9c0.1,0.9-0.5,1.6-1.4,1.7C18,176.4,17.2,175.7,17.1,174.9L17.1,174.9z"/>
	<path class="st7" d="M48.5,21.9c0-9.2-7.5-16.8-16.7-16.8C22.5,5.2,15,12.7,15,21.9c0,9.3,7.5,16.8,16.7,16.8
		C41,38.7,48.5,31.2,48.5,21.9L48.5,21.9z M24.4,29.6c-0.5-0.3-0.6-0.9-0.3-1.4c2.4-3.9,3-8.9,1.6-14.7c-0.1-0.6,0.2-1.1,0.8-1.2
		c0.6-0.1,1.1,0.2,1.2,0.8c1.5,6.4,0.8,11.9-1.9,16.3C25.5,29.8,24.8,29.9,24.4,29.6z M28.9,31.7c-0.6-0.4-0.8-1.2-0.4-1.8
		c2.8-4.5,3.6-11.4,2-16.7c-0.2-0.7,0.2-1.4,0.9-1.6c0.7-0.2,1.4,0.2,1.6,0.9c1.8,6.1,0.9,13.6-2.2,18.8
		C30.3,31.8,29.5,32,28.9,31.7L28.9,31.7z M33.7,31.8c3.2-5.4,3.5-14.3,2-19.5c-0.3-0.8,0.2-1.7,1-2c0.8-0.2,1.7,0.2,2,1
		c1.8,5.9,1.4,15.8-2.3,22c-0.4,0.7-1.4,1-2.1,0.5C33.5,33.5,33.2,32.6,33.7,31.8L33.7,31.8z"/>
	<path class="st7" d="M131,4.7c-4.1,8.3-0.8,18.3,7.5,22.5c8.3,4.1,18.3,0.8,22.5-7.5c4.1-8.3,0.8-18.3-7.5-22.5
		C145.2-6.9,135.1-3.6,131,4.7L131,4.7z M156,8.6c0.3,0.5,0.2,1.1-0.3,1.4c-3.9,2.4-6.6,6.6-8,12.4c-0.1,0.6-0.7,0.9-1.3,0.8
		s-0.9-0.7-0.8-1.3c1.6-6.4,4.6-11,8.9-13.7C155.1,8,155.7,8.1,156,8.6z M152.8,4.8c0.4,0.6,0.2,1.4-0.4,1.8
		c-4.5,2.8-8.3,8.6-9.2,14.1c-0.1,0.7-0.8,1.2-1.5,1.1s-1.2-0.8-1.1-1.5c1.1-6.3,5.3-12.6,10.4-15.8C151.7,4,152.5,4.1,152.8,4.8
		L152.8,4.8z M148.7,2.5c-5.3,3.4-9.5,11.2-10.4,16.5c-0.1,0.9-1,1.4-1.8,1.3c-0.9-0.1-1.4-1-1.3-1.8c1-6.1,5.8-14.7,11.8-18.6
		c0.7-0.5,1.7-0.3,2.2,0.5C149.6,1,149.4,2,148.7,2.5L148.7,2.5z"/>
	<path class="st8" d="M113.9,4.7c-4.5,1-7.4,5.4-6.5,9.9c1,4.5,5.4,7.4,9.9,6.5c4.5-1,7.4-5.4,6.5-9.9S118.4,3.8,113.9,4.7
		L113.9,4.7z M120.2,15.7c-0.1,0.3-0.4,0.4-0.7,0.3c-2.2-0.8-4.7-0.5-7.4,0.7c-0.3,0.1-0.6,0-0.7-0.3s0-0.6,0.3-0.7
		c3-1.4,5.7-1.6,8.2-0.8C120.1,15.2,120.3,15.5,120.2,15.7z M120.7,13.3c-0.1,0.3-0.5,0.5-0.8,0.4c-2.5-0.9-5.9-0.6-8.4,0.8
		c-0.3,0.2-0.7,0.1-0.9-0.3c-0.2-0.3-0.1-0.7,0.3-0.9c2.8-1.5,6.6-1.9,9.4-0.9C120.6,12.6,120.8,13,120.7,13.3L120.7,13.3z
		 M120.3,11c-3-1-7.4-0.2-9.7,1.1c-0.4,0.2-0.9,0.1-1.1-0.3c-0.2-0.4-0.1-0.9,0.3-1.1c2.7-1.5,7.6-2.3,11-1.2c0.4,0.1,0.6,0.6,0.5,1
		C121.2,10.9,120.7,11.1,120.3,11L120.3,11z"/>
	<path class="st8" d="M85,2.7c-4.3-1.6-9.2,0.7-10.7,5c-1.6,4.3,0.7,9.2,5,10.7c4.3,1.6,9.2-0.7,10.7-5C91.6,9,89.4,4.2,85,2.7
		L85,2.7z M84.5,15.3c-0.2,0.2-0.6,0.1-0.7-0.1c-1.4-1.8-3.7-2.9-6.6-3.3c-0.3,0-0.5-0.3-0.5-0.6s0.3-0.5,0.6-0.5
		c3.2,0.4,5.7,1.6,7.3,3.7C84.8,14.8,84.7,15.1,84.5,15.3z M86.2,13.5c-0.3,0.2-0.7,0.2-0.9-0.1c-1.6-2.1-4.7-3.6-7.5-3.8
		c-0.4,0-0.6-0.3-0.6-0.7s0.3-0.6,0.7-0.6c3.2,0.2,6.6,1.9,8.5,4.3C86.6,12.9,86.5,13.3,86.2,13.5L86.2,13.5z M87.1,11.3
		c-2-2.4-6.1-4.1-8.8-4.2c-0.4,0-0.8-0.4-0.7-0.8c0-0.4,0.4-0.8,0.8-0.7c3.1,0.2,7.7,2,9.9,4.8c0.3,0.3,0.2,0.8-0.1,1.1
		C87.9,11.7,87.4,11.7,87.1,11.3L87.1,11.3z"/>
	<path class="st8" d="M20.5,44.5C17.3,41.2,12,41,8.6,44.2S5.1,52.7,8.3,56c3.2,3.4,8.5,3.5,11.8,0.3C23.5,53.2,23.7,47.9,20.5,44.5
		L20.5,44.5z M14.4,55.6c-0.3,0.1-0.6-0.1-0.6-0.4c-0.5-2.3-2-4.2-4.5-5.9C9,49.2,9,48.8,9.1,48.6c0.2-0.2,0.5-0.3,0.7-0.1
		c2.7,1.8,4.4,4,4.9,6.5C14.8,55.3,14.7,55.6,14.4,55.6z M16.7,54.8c-0.4,0.1-0.7-0.2-0.8-0.5c-0.5-2.6-2.6-5.3-5-6.7
		c-0.3-0.2-0.4-0.6-0.2-0.9c0.2-0.3,0.6-0.4,0.9-0.2c2.8,1.6,5,4.6,5.7,7.6C17.3,54.4,17.1,54.7,16.7,54.8L16.7,54.8z M18.5,53.2
		c-0.7-3.1-3.7-6.4-6-7.7c-0.4-0.2-0.5-0.7-0.3-1.1c0.2-0.4,0.7-0.5,1.1-0.3c2.7,1.5,5.9,5.2,6.7,8.7c0.1,0.4-0.2,0.8-0.6,0.9
		C19,53.9,18.6,53.6,18.5,53.2L18.5,53.2z"/>
	<path class="st8" d="M8.3,69c-0.7-4.6-5-7.7-9.6-7s-7.7,5-7,9.6s5,7.7,9.6,7C5.9,77.8,9,73.6,8.3,69L8.3,69z M-3.1,74.6
		c-0.3-0.1-0.4-0.4-0.3-0.7c0.9-2.1,0.8-4.6-0.3-7.4c-0.1-0.3,0-0.6,0.3-0.7s0.6,0,0.7,0.3c1.2,3,1.3,5.8,0.3,8.2
		C-2.5,74.6-2.8,74.8-3.1,74.6z M-0.7,75.3C-1,75.2-1.1,74.8-1,74.4C0,72-0.1,68.5-1.3,66c-0.2-0.3,0-0.7,0.3-0.9
		c0.3-0.2,0.7,0,0.9,0.3c1.4,2.9,1.5,6.7,0.3,9.5C0.1,75.3-0.3,75.4-0.7,75.3L-0.7,75.3z M1.7,75c1.2-2.9,0.6-7.3-0.5-9.8
		c-0.2-0.4,0-0.9,0.4-1c0.4-0.2,0.9,0,1,0.4c1.3,2.8,1.9,7.7,0.6,11C3,76,2.5,76.2,2.1,76C1.7,75.9,1.5,75.4,1.7,75L1.7,75z"/>
	<path class="st8" d="M5,120c2.8-3.7,2-9-1.7-11.7c-3.7-2.8-9-2-11.7,1.7c-2.8,3.7-2,9,1.7,11.7C-3,124.5,2.2,123.7,5,120L5,120z
		 M-7,115.9c-0.1-0.3,0-0.6,0.3-0.7c2.1-0.9,3.8-2.7,5-5.4c0.1-0.3,0.4-0.4,0.7-0.3s0.4,0.4,0.3,0.7c-1.3,3-3.2,5-5.6,6
		C-6.6,116.3-6.9,116.1-7,115.9z M-5.8,118c-0.1-0.3,0-0.7,0.4-0.8c2.5-1,4.8-3.5,5.8-6.1c0.1-0.3,0.5-0.5,0.8-0.4s0.5,0.5,0.4,0.8
		c-1.1,3-3.7,5.8-6.5,6.9C-5.3,118.5-5.6,118.4-5.8,118L-5.8,118z M-3.9,119.5c2.9-1.2,5.7-4.7,6.6-7.2c0.1-0.4,0.6-0.6,1-0.5
		s0.6,0.6,0.5,1c-1,2.9-4.1,6.7-7.5,8.1c-0.4,0.2-0.9,0-1-0.4C-4.5,120.2-4.3,119.7-3.9,119.5L-3.9,119.5z"/>
	<path class="st8" d="M43.3,189.9c2.8-3.7,2-9-1.7-11.7c-3.7-2.8-9-2-11.7,1.7c-2.8,3.7-2,9,1.7,11.7
		C35.2,194.3,40.5,193.6,43.3,189.9L43.3,189.9z M31.3,185.7c-0.1-0.3,0-0.6,0.3-0.7c2.1-0.9,3.8-2.7,5-5.4c0.1-0.3,0.4-0.4,0.7-0.3
		c0.3,0.1,0.4,0.4,0.3,0.7c-1.3,3-3.2,5-5.6,6C31.7,186.1,31.4,186,31.3,185.7z M32.5,187.9c-0.1-0.3,0-0.7,0.4-0.8
		c2.5-1,4.8-3.5,5.8-6.1c0.1-0.3,0.5-0.5,0.8-0.4s0.5,0.5,0.4,0.8c-1.1,3-3.7,5.8-6.5,6.9C33,188.4,32.6,188.2,32.5,187.9
		L32.5,187.9z M34.3,189.4c2.9-1.2,5.7-4.7,6.6-7.2c0.1-0.4,0.6-0.6,1-0.5s0.6,0.6,0.5,1c-1,2.9-4.1,6.7-7.5,8.1
		c-0.4,0.2-0.9,0-1-0.4C33.8,190,33.9,189.5,34.3,189.4L34.3,189.4z"/>
	<path class="st9" d="M13.9,145.2c1.4-1.9,1-4.5-0.9-5.9s-4.5-1-5.9,0.9s-1,4.5,0.9,5.9C9.9,147.5,12.6,147.1,13.9,145.2L13.9,145.2
		z M8,143.2c-0.1-0.1,0-0.3,0.1-0.3c1.1-0.4,1.9-1.3,2.5-2.7c0.1-0.1,0.2-0.2,0.3-0.1c0.1,0.1,0.2,0.2,0.1,0.3
		c-0.7,1.5-1.6,2.5-2.8,3C8.2,143.4,8,143.3,8,143.2z M8.6,144.3c-0.1-0.2,0-0.4,0.2-0.4c1.2-0.5,2.4-1.7,2.9-3.1
		c0.1-0.2,0.2-0.3,0.4-0.2s0.3,0.2,0.2,0.4c-0.5,1.5-1.8,2.9-3.3,3.4C8.8,144.5,8.6,144.4,8.6,144.3L8.6,144.3z M9.5,145
		c1.4-0.6,2.8-2.3,3.3-3.6c0.1-0.2,0.3-0.3,0.5-0.2s0.3,0.3,0.2,0.5c-0.5,1.5-2.1,3.4-3.7,4.1c-0.2,0.1-0.4,0-0.5-0.2
		C9.2,145.3,9.3,145.1,9.5,145L9.5,145z"/>
	<path class="st9" d="M2.2,94.1c2.3-0.1,4-2.1,3.9-4.4c-0.2-2.3-2.2-4.1-4.5-3.9s-4.1,2.2-3.9,4.5C-2.1,92.5-0.1,94.3,2.2,94.1
		L2.2,94.1z M-0.2,88.2c0.1-0.1,0.2-0.2,0.4-0.1c1,0.5,2.3,0.6,3.7,0.2c0.1,0,0.3,0,0.3,0.2c0,0.1,0,0.3-0.2,0.3
		c-1.6,0.5-2.9,0.4-4.1-0.2C-0.2,88.5-0.2,88.4-0.2,88.2z M-0.6,89.4c0.1-0.2,0.3-0.2,0.4-0.1C1,89.9,2.7,90,4,89.5
		c0.2-0.1,0.4,0,0.4,0.2c0.1,0.2,0,0.4-0.2,0.4c-1.5,0.6-3.4,0.5-4.7-0.2C-0.6,89.8-0.7,89.6-0.6,89.4L-0.6,89.4z M-0.6,90.6
		c1.4,0.7,3.6,0.6,4.9,0.2c0.2-0.1,0.4,0,0.5,0.2s0,0.4-0.2,0.5c-1.4,0.5-3.9,0.6-5.5-0.2c-0.2-0.1-0.3-0.3-0.2-0.5
		C-1,90.6-0.7,90.5-0.6,90.6L-0.6,90.6z"/>
	<path class="st9" d="M-4.6,136.4c1.3,1.9,3.8,2.5,5.8,1.2c1.9-1.3,2.5-3.8,1.2-5.8c-1.3-1.9-3.8-2.5-5.8-1.2
		C-5.3,131.8-5.9,134.4-4.6,136.4L-4.6,136.4z M-0.6,131.5c0.1,0,0.3,0.1,0.3,0.3c0,1.2,0.6,2.3,1.7,3.3c0.1,0.1,0.1,0.3,0,0.4
		c-0.1,0.1-0.3,0.1-0.4,0c-1.2-1.1-1.8-2.4-1.8-3.7C-0.9,131.6-0.8,131.5-0.6,131.5z M-1.8,131.7c0.2,0,0.3,0.1,0.3,0.3
		c0,1.3,0.8,2.9,1.9,3.8c0.1,0.1,0.2,0.3,0,0.5c-0.1,0.1-0.3,0.2-0.5,0c-1.2-1-2.1-2.7-2.1-4.3C-2.2,131.8-2,131.7-1.8,131.7
		L-1.8,131.7z M-2.9,132.3c0.1,1.6,1.2,3.5,2.2,4.3c0.2,0.1,0.2,0.4,0,0.6c-0.1,0.2-0.4,0.2-0.6,0c-1.2-1-2.4-3.1-2.5-4.9
		c0-0.2,0.2-0.4,0.4-0.4C-3.1,131.9-2.9,132.1-2.9,132.3L-2.9,132.3z"/>
	<path class="st9" d="M60.7,23.1c2.3-0.3,3.9-2.4,3.6-4.7c-0.3-2.3-2.4-3.9-4.7-3.6c-2.3,0.3-3.9,2.4-3.6,4.7
		C56.3,21.8,58.4,23.4,60.7,23.1L60.7,23.1z M58,17.3c0.1-0.1,0.2-0.2,0.3-0.1c1.1,0.5,2.3,0.4,3.7-0.1c0.1-0.1,0.3,0,0.3,0.2
		c0.1,0.1,0,0.3-0.2,0.3c-1.5,0.6-2.9,0.6-4.1,0.1C58,17.6,57.9,17.5,58,17.3z M57.6,18.5c0.1-0.2,0.3-0.2,0.4-0.2
		c1.2,0.5,2.9,0.5,4.2-0.1c0.2-0.1,0.4,0,0.4,0.2c0.1,0.2,0,0.4-0.2,0.4c-1.4,0.7-3.3,0.7-4.7,0.1C57.6,18.9,57.6,18.7,57.6,18.5
		L57.6,18.5z M57.7,19.7c1.4,0.6,3.7,0.4,4.9-0.2c0.2-0.1,0.4,0,0.5,0.2s0,0.4-0.2,0.5c-1.4,0.6-3.9,0.9-5.5,0.2
		c-0.2-0.1-0.3-0.3-0.2-0.5S57.5,19.6,57.7,19.7L57.7,19.7z"/>
	<path class="st9" d="M-0.6,36.7c1.4,1.9,4,2.3,5.9,0.9c1.9-1.4,2.3-4,0.9-5.9s-4-2.3-5.9-0.9C-1.6,32.2-1.9,34.8-0.6,36.7
		L-0.6,36.7z M3.1,31.6c0.1,0,0.3,0.1,0.3,0.2C3.5,32.9,4.2,34,5.3,35c0.1,0.1,0.1,0.3,0,0.4c-0.1,0.1-0.3,0.1-0.4,0
		c-1.2-1.1-1.9-2.3-2-3.5C2.9,31.7,3,31.6,3.1,31.6z M1.9,31.8c0.2,0,0.3,0.1,0.4,0.3c0.1,1.3,1,2.8,2.1,3.6
		c0.1,0.1,0.2,0.3,0.1,0.5c-0.1,0.1-0.3,0.2-0.5,0.1c-1.3-0.9-2.2-2.6-2.3-4.1C1.6,32,1.7,31.8,1.9,31.8L1.9,31.8z M0.9,32.5
		c0.2,1.6,1.4,3.4,2.5,4.2c0.2,0.1,0.2,0.4,0.1,0.5c-0.1,0.2-0.4,0.2-0.5,0.1c-1.2-0.9-2.6-3-2.8-4.7c0-0.2,0.1-0.4,0.4-0.4
		C0.7,32.1,0.9,32.3,0.9,32.5L0.9,32.5z"/>
	<path class="st9" d="M1.3,9.6c-0.4,2.3,1.1,4.5,3.3,4.9c2.3,0.4,4.5-1.1,4.9-3.3c0.4-2.3-1.1-4.5-3.3-4.9C3.9,5.8,1.7,7.3,1.3,9.6
		L1.3,9.6z M7.6,8.8c0.1,0.1,0.1,0.3,0,0.4c-0.8,0.9-1.1,2-1.1,3.5c0,0.1-0.1,0.3-0.3,0.3C6.1,13,6,12.9,6,12.8
		c-0.1-1.6,0.4-2.9,1.2-3.9C7.3,8.7,7.5,8.7,7.6,8.8z M6.5,8.1c0.1,0.1,0.1,0.3,0,0.5c-0.9,1-1.4,2.6-1.3,4c0,0.2-0.1,0.3-0.3,0.4
		c-0.2,0-0.3-0.1-0.4-0.3c-0.2-1.6,0.4-3.4,1.4-4.5C6.2,8,6.4,8,6.5,8.1L6.5,8.1z M5.4,7.8C4.3,9,3.8,11.2,4,12.5
		c0,0.2-0.1,0.4-0.3,0.4s-0.4-0.1-0.4-0.3C3,11.1,3.6,8.7,4.8,7.3c0.1-0.2,0.4-0.2,0.6,0C5.5,7.4,5.5,7.7,5.4,7.8L5.4,7.8z"/>
	<path class="st9" d="M54.8,2.4c-1.5,1.7-1.4,4.4,0.4,5.9c1.7,1.5,4.4,1.4,5.9-0.4c1.5-1.7,1.4-4.4-0.4-5.9
		C59,0.5,56.4,0.7,54.8,2.4L54.8,2.4z M60.6,5c0,0.1,0,0.3-0.2,0.3c-1.1,0.3-2,1.2-2.7,2.5c-0.1,0.1-0.2,0.2-0.4,0.1
		c-0.1-0.1-0.2-0.2-0.1-0.4c0.8-1.4,1.8-2.4,3-2.7C60.4,4.8,60.6,4.8,60.6,5z M60.1,3.8c0.1,0.2,0,0.4-0.2,0.4
		c-1.3,0.4-2.5,1.5-3.1,2.8c-0.1,0.2-0.3,0.2-0.4,0.2c-0.2-0.1-0.2-0.3-0.2-0.4c0.7-1.4,2.1-2.7,3.5-3.2C59.9,3.6,60.1,3.7,60.1,3.8
		L60.1,3.8z M59.2,3c-1.5,0.5-3,2.1-3.6,3.3c-0.1,0.2-0.3,0.3-0.5,0.2C54.9,6.4,54.9,6.2,55,6c0.6-1.4,2.3-3.2,4.1-3.7
		c0.2-0.1,0.4,0,0.5,0.3C59.6,2.7,59.5,2.9,59.2,3L59.2,3z"/>
	<path class="st9" d="M95.8-0.6c-1.5,1.7-1.4,4.4,0.4,5.9c1.7,1.5,4.4,1.4,5.9-0.4c1.5-1.7,1.4-4.4-0.4-5.9S97.3-2.4,95.8-0.6
		L95.8-0.6z M101.6,1.9c0,0.1,0,0.3-0.2,0.3c-1.1,0.3-2,1.2-2.7,2.5c-0.1,0.1-0.2,0.2-0.4,0.1c-0.1-0.1-0.2-0.2-0.1-0.4
		C99,3,100,2,101.2,1.7C101.4,1.7,101.5,1.8,101.6,1.9z M101,0.8c0.1,0.2,0,0.4-0.2,0.4c-1.3,0.4-2.5,1.5-3.1,2.8
		c-0.1,0.2-0.3,0.2-0.4,0.2c-0.2-0.1-0.2-0.3-0.2-0.4c0.7-1.4,2.1-2.7,3.5-3.2C100.8,0.5,101,0.6,101,0.8L101,0.8z M100.2,0
		c-1.5,0.5-3,2.1-3.6,3.3c-0.1,0.2-0.3,0.3-0.5,0.2S95.8,3.2,95.9,3c0.6-1.4,2.3-3.2,4.1-3.7c0.2-0.1,0.4,0,0.5,0.3
		C100.5-0.3,100.4-0.1,100.2,0L100.2,0z"/>
</g>
</svg>
